 <svg version="1.0" xmlns="http://www.w3.org/2000/svg" width="700.000000pt" height="154.000000pt" viewBox="0 0 700.000000 154.000000" preserveAspectRatio="xMidYMid meet">
<metadata>
Created by potrace 1.12, written by Peter Selinger 2001-2015
</metadata>
<g transform="translate(0.000000,154.000000) scale(0.100000,-0.100000)" fill="#000000" stroke="none">
<path d="M2868 1365 c-26 -19 -50 -35 -53 -35 -3 0 -24 -13 -47 -30 -22 -16
-49 -30 -59 -30 -21 0 -35 -18 -22 -31 8 -8 65 2 108 20 11 5 54 21 97 36 81
28 112 52 106 82 -2 13 -14 19 -43 21 -32 2 -49 -5 -87 -33z m82 -5 c0 -5 -7
-10 -16 -10 -8 0 -12 5 -9 10 3 6 10 10 16 10 5 0 9 -4 9 -10z"></path>
<path d="M6443 1212 c-70 -71 -123 -210 -159 -413 -22 -124 -25 -167 -22 -310
3 -147 5 -169 22 -188 25 -27 51 -27 70 1 12 17 16 50 16 145 l0 123 173 -6
c94 -4 175 -9 178 -13 3 -3 11 -58 18 -121 6 -63 17 -120 23 -127 14 -18 43
-16 58 2 21 25 1 315 -32 465 -5 25 -13 65 -18 90 -9 48 -49 176 -71 225 -19
43 -84 131 -111 149 -12 9 -42 16 -65 16 -37 0 -49 -6 -80 -38z m130 -22 c49
-42 71 -121 127 -440 11 -63 16 -118 12 -121 -4 -4 -79 -8 -167 -10 l-160 -4
3 90 c7 229 50 444 98 492 30 30 46 29 87 -7z m-197 -232 c-9 -40 -27 -266
-26 -320 1 -90 -24 -313 -35 -310 -21 5 -26 62 -20 212 5 148 34 354 57 413
13 33 30 36 24 5z m347 -40 c43 -198 63 -332 73 -480 9 -132 -9 -128 -25 5 -8
67 -19 111 -31 128 -14 19 -16 29 -8 37 19 19 4 180 -28 307 -3 14 -2 25 4 25
5 0 12 -10 15 -22z"></path>
<path d="M5669 1218 c-18 -34 -3 -411 31 -773 5 -57 5 -94 -2 -102 -5 -7 -33
-13 -61 -15 -38 -2 -52 -7 -52 -18 0 -13 41 -15 298 -18 194 -1 305 1 317 8
29 15 25 37 -10 55 -36 18 -206 20 -327 4 -45 -7 -87 -9 -95 -7 -11 5 -12 27
-6 114 11 162 13 557 4 651 -9 90 -18 107 -58 117 -21 5 -30 2 -39 -16z m69
-328 c3 -185 1 -270 -6 -270 -14 0 -20 51 -26 215 -3 72 -9 173 -12 227 -4 53
-4 104 0 114 6 16 8 17 24 1 15 -15 17 -50 20 -287z m412 -560 c0 -6 -37 -10
-90 -10 -53 0 -90 4 -90 10 0 6 37 10 90 10 53 0 90 -4 90 -10z"></path>
<path d="M4698 1213 c-11 -13 -17 -50 -21 -133 -3 -63 -10 -131 -16 -150 -5
-19 -17 -73 -26 -120 -54 -275 -146 -501 -208 -508 -32 -4 -53 32 -90 158 -72
237 -157 605 -157 677 0 57 -68 107 -98 71 -16 -20 -28 -923 -12 -933 18 -11
35 12 36 48 0 18 4 129 8 248 5 135 5 219 -1 222 -16 10 -7 372 8 372 14 0 19
-15 44 -150 21 -114 47 -225 90 -392 37 -139 39 -153 28 -153 -10 0 -34 59
-78 198 -20 61 -41 112 -46 112 -15 0 -10 -33 22 -141 40 -136 110 -279 163
-335 37 -38 48 -44 83 -44 38 0 44 4 77 49 52 70 107 216 156 411 17 71 57
338 62 425 2 28 8 40 18 40 19 0 28 -73 30 -255 3 -237 0 -330 -9 -330 -5 0
-12 44 -15 98 -8 109 -13 132 -28 132 -17 0 14 -526 32 -544 17 -17 45 8 47
40 1 16 5 169 9 341 10 435 -7 563 -74 563 -11 0 -26 -8 -34 -17z"></path>
<path d="M4937 1212 c-36 -39 -14 -606 28 -730 25 -74 59 -125 108 -160 38
-27 54 -32 101 -32 30 0 67 5 81 12 32 14 63 63 78 124 7 25 16 46 22 47 5 1
23 -35 40 -80 33 -91 49 -113 66 -96 7 7 7 23 -3 54 -10 34 -12 134 -10 438 2
356 1 396 -14 413 -23 25 -70 24 -84 -3 -7 -13 -14 -145 -20 -357 -7 -307 -9
-343 -29 -402 -26 -77 -59 -110 -111 -110 -88 0 -126 60 -141 219 -5 58 -13
226 -17 372 -6 242 -9 269 -26 288 -23 26 -48 27 -69 3z m48 -32 c4 -6 11
-147 16 -313 4 -166 11 -324 15 -352 8 -65 -6 -51 -29 28 -13 47 -20 131 -29
338 -6 151 -9 283 -5 292 7 19 23 22 32 7z m426 -22 c3 -51 -3 -673 -6 -676
-2 -2 -15 4 -30 14 -21 14 -25 23 -21 43 4 14 9 150 11 301 3 151 8 290 11
308 6 37 33 45 35 10z"></path>
<path d="M3455 1206 c-153 -40 -225 -114 -225 -230 0 -71 10 -96 60 -146 41
-41 75 -51 98 -28 24 24 14 57 -26 82 -41 25 -72 77 -72 118 0 13 15 46 34 73
60 90 189 132 321 105 68 -14 87 -24 133 -65 80 -72 96 -175 40 -259 -42 -62
-117 -107 -185 -109 l-48 -2 -6 139 c-4 120 -8 140 -24 152 -25 18 -38 18 -64
-3 l-22 -18 11 -280 c6 -154 14 -320 18 -370 7 -87 8 -90 32 -90 25 0 25 1 33
115 4 63 11 160 15 215 l7 100 35 -2 c28 -1 44 -11 78 -48 23 -26 42 -57 42
-69 0 -13 3 -25 6 -29 4 -3 21 -42 39 -86 38 -95 65 -136 113 -174 35 -27 95
-37 107 -17 3 5 -12 27 -34 50 -21 22 -42 52 -45 66 -20 77 -96 223 -139 267
-38 38 -43 67 -12 67 30 0 93 39 127 80 66 76 76 173 28 257 -36 63 -79 97
-156 123 -76 27 -248 35 -319 16z m446 -157 c21 -42 25 -121 8 -166 -12 -34
-78 -103 -97 -103 -8 0 0 17 21 43 50 61 64 130 41 202 -9 31 -21 58 -26 61
-4 3 -6 10 -2 15 9 14 32 -8 55 -52z m-357 -86 c13 -92 2 -493 -14 -493 -7 0
-20 267 -20 432 0 78 3 98 14 98 9 0 16 -15 20 -37z m-230 -80 c19 -21 32 -42
28 -47 -5 -10 -72 60 -72 76 0 15 9 9 44 -29z m406 -174 c0 -11 -4 -17 -10
-14 -5 3 -10 13 -10 21 0 8 5 14 10 14 6 0 10 -9 10 -21z m79 -110 c13 -17 39
-69 58 -117 19 -48 40 -97 46 -109 11 -25 5 -39 -13 -28 -14 8 -63 107 -94
187 -13 35 -27 71 -31 81 -11 27 7 19 34 -14z"></path>
<path d="M2722 1180 c-141 -47 -222 -223 -222 -477 0 -204 69 -373 184 -448
35 -23 118 -33 183 -23 123 19 215 152 246 353 15 101 15 119 -4 255 -19 137
-78 259 -149 310 -37 27 -111 50 -154 49 -17 0 -55 -9 -84 -19z m128 -21 c48
-11 101 -54 125 -102 29 -59 39 -143 39 -352 1 -251 -9 -314 -61 -375 -46 -53
-81 -70 -145 -70 -120 1 -176 75 -198 260 -22 188 -3 465 38 546 26 51 51 73
104 89 53 17 44 16 98 4z m-275 -439 c0 -126 -2 -230 -5 -230 -3 0 -14 29 -23
64 -19 71 -23 226 -7 285 5 20 12 53 15 74 14 87 20 23 20 -193z m502 129 c7
-35 12 -102 12 -149 0 -75 -3 -105 -24 -197 -14 -62 -20 -3 -20 197 0 229 9
271 32 149z"></path>
<path d="M2010 1178 c-174 -9 -209 -17 -173 -36 26 -14 396 -36 509 -30 93 5
124 16 124 44 0 36 -104 40 -460 22z"></path>
<path d="M260 1143 c-22 -28 -22 -28 -19 -453 l4 -425 -55 -5 c-40 -4 -55 -9
-55 -20 0 -21 154 -31 402 -28 168 3 195 5 210 21 17 16 16 18 -3 37 -33 34
-153 36 -414 8 -29 -3 -29 -28 0 261 13 130 20 276 20 401 0 178 -2 198 -18
213 -26 24 -47 21 -72 -10z m56 -50 c13 -52 -12 -553 -27 -553 -10 0 -12 563
-2 573 13 13 23 7 29 -20z m254 -843 c0 -5 -9 -10 -20 -10 -11 0 -20 5 -20 10
0 6 9 10 20 10 11 0 20 -4 20 -10z"></path>
<path d="M1020 1124 c-26 -25 -58 -66 -71 -92 -92 -194 -133 -374 -145 -637
-6 -134 -6 -141 15 -167 27 -34 35 -35 66 -3 22 21 25 34 26 97 0 40 4 96 7
123 l7 50 45 -3 c25 -1 101 -6 170 -10 l125 -7 10 -124 c8 -100 13 -126 28
-135 12 -8 22 -8 35 0 15 10 17 32 20 175 6 326 -64 638 -168 749 -23 25 -36
30 -74 30 -42 0 -52 -5 -96 -46z m115 4 c44 -20 73 -108 98 -303 9 -66 18
-156 19 -200 l3 -80 -159 -8 c-88 -4 -163 -4 -167 0 -4 5 -4 26 1 48 5 22 18
96 29 165 36 228 59 306 104 357 33 37 35 38 72 21z m-189 -245 c-31 -156 -37
-205 -67 -513 -12 -124 -22 -150 -40 -104 -24 61 22 427 72 582 21 62 46 87
35 35z m358 -170 c21 -127 34 -453 19 -453 -12 0 -23 79 -23 161 0 47 -4 59
-22 72 -23 14 -23 15 -4 35 16 19 18 32 12 109 -4 48 -9 109 -12 136 -3 26 -2
47 3 47 6 0 18 -48 27 -107z"></path>
<path d="M1970 1045 c-10 -13 -11 -77 -5 -333 4 -174 10 -351 14 -392 5 -66 8
-75 26 -75 25 0 32 35 48 242 12 148 13 158 32 155 11 -1 73 -5 138 -9 104 -5
119 -4 137 12 16 14 18 21 8 33 -10 11 -39 13 -157 11 l-144 -4 1 135 c0 74
-2 158 -6 185 -7 49 -8 50 -43 53 -23 2 -40 -2 -49 -13z m63 -223 c-2 -221
-13 -382 -24 -382 -10 0 -12 563 -2 574 21 21 28 -26 26 -192z"></path>
</g>
</svg>