 <svg version="1.0" xmlns="http://www.w3.org/2000/svg" width="700.000000pt" height="660.000000pt" viewBox="0 0 700.000000 660.000000" preserveAspectRatio="xMidYMid meet">
<metadata>
Created by potrace 1.12, written by Peter Selinger 2001-2015
</metadata>
<g transform="translate(0.000000,660.000000) scale(0.100000,-0.100000)" fill="#000000" stroke="none">
<path d="M2346 6421 c-14 -26 -14 -30 3 -45 31 -28 101 -18 101 14 0 22 -45
60 -71 60 -10 0 -25 -13 -33 -29z"></path>
<path d="M6685 6190 c-11 -5 -41 -12 -67 -15 -25 -3 -52 -13 -58 -20 -7 -8
-17 -15 -22 -15 -21 0 -326 -213 -425 -296 -28 -24 -54 -44 -58 -44 -4 0 -19
-12 -34 -27 -15 -16 -123 -120 -241 -233 -322 -307 -441 -430 -485 -499 -12
-20 -30 -42 -39 -50 -9 -7 -16 -17 -16 -22 0 -4 -20 -37 -45 -73 -26 -39 -39
-66 -32 -66 18 0 45 30 98 110 24 36 75 97 114 135 39 39 76 82 84 97 17 34
287 299 575 565 43 39 94 79 112 88 19 9 78 52 131 97 86 71 193 148 207 148
2 0 28 16 57 35 64 42 145 63 177 46 47 -25 21 -104 -78 -241 -22 -30 -49 -72
-60 -93 -29 -54 -216 -297 -310 -402 -44 -49 -114 -130 -156 -180 -78 -92
-202 -215 -216 -215 -5 0 -12 -8 -16 -18 -8 -20 -202 -202 -215 -202 -5 0 -28
-17 -52 -38 -24 -21 -63 -51 -87 -67 -99 -67 -118 -86 -124 -124 -5 -32 -11
-38 -45 -49 -21 -7 -50 -12 -64 -12 -33 0 -72 -20 -156 -82 -73 -52 -206 -189
-230 -235 -14 -29 -78 -116 -104 -144 -8 -9 -15 -20 -15 -26 0 -6 -8 -21 -19
-34 -34 -44 -148 -274 -154 -312 -3 -20 -26 -67 -50 -105 -25 -37 -50 -90 -57
-119 -6 -29 -18 -57 -25 -63 -7 -6 -18 -31 -25 -55 -7 -25 -17 -48 -21 -51 -5
-3 -9 -16 -9 -29 0 -15 -10 -31 -25 -41 -19 -13 -25 -25 -25 -54 0 -24 -7 -43
-20 -55 -11 -10 -20 -31 -20 -46 0 -15 -6 -34 -12 -41 -7 -7 -23 -28 -36 -46
-17 -24 -19 -32 -8 -32 8 0 21 -3 30 -6 13 -5 16 1 16 30 0 30 5 38 24 46 18
6 27 20 32 44 3 19 12 40 20 46 7 7 16 31 20 55 4 31 13 49 30 60 13 8 28 32
34 54 13 49 58 149 71 156 5 4 9 15 9 26 0 11 11 41 25 67 14 26 25 55 25 65
0 11 9 30 20 44 13 17 20 41 20 68 0 30 8 53 28 81 16 22 32 51 35 66 7 28 33
71 87 145 16 23 30 46 30 52 0 5 21 35 48 67 26 32 52 68 57 81 18 40 128 155
162 169 18 8 33 18 33 23 0 4 27 29 60 54 64 50 99 58 134 32 28 -21 56 -18
89 8 27 23 27 24 11 55 -8 18 -14 40 -12 49 2 9 33 35 70 57 90 56 242 171
298 227 25 25 78 74 118 109 40 35 105 102 145 150 39 47 98 114 132 150 33
36 98 111 145 167 47 56 93 104 102 107 10 2 18 13 18 23 0 10 24 48 53 83 29
36 68 92 87 125 18 33 45 76 59 95 14 19 33 47 41 62 8 15 29 47 46 71 20 29
33 62 38 97 6 46 4 55 -15 76 -24 25 -41 28 -74 14z"></path>
<path d="M2720 6060 c0 -64 -13 -80 -65 -80 -53 0 -63 -24 -15 -35 52 -11 65
-57 23 -77 -33 -16 -37 -42 -6 -46 14 -2 27 5 39 22 24 38 76 36 116 -4 16
-16 34 -30 39 -30 16 0 10 27 -10 41 -12 8 -21 28 -23 49 -2 29 1 36 23 47 31
15 65 51 56 59 -3 4 -22 -1 -41 -10 -19 -9 -40 -16 -48 -16 -18 1 -50 46 -57
83 -10 48 -31 46 -31 -3z m54 -83 c11 -8 17 -23 14 -38 -2 -20 -9 -25 -41 -27
-42 -4 -53 11 -43 53 7 28 40 34 70 12z"></path>
<path d="M2020 6005 c-9 -11 -8 -20 10 -45 34 -47 100 -38 100 15 0 12 -5 26
-12 33 -17 17 -83 15 -98 -3z"></path>
<path d="M3320 5470 c-38 -31 -35 -42 20 -70 60 -31 100 -9 100 55 0 48 -69
56 -120 15z"></path>
<path d="M3085 5481 c-25 -5 -31 -12 -33 -37 -3 -26 2 -35 29 -52 30 -19 36
-19 61 -6 36 19 52 48 39 73 -17 30 -37 35 -96 22z"></path>
<path d="M3618 5473 c-38 -6 -51 -27 -44 -68 8 -43 16 -48 57 -33 47 16 78 40
79 60 0 18 -37 49 -55 47 -5 -1 -22 -4 -37 -6z"></path>
<path d="M2819 5442 c-20 -17 -22 -24 -14 -47 21 -58 63 -58 95 -2 29 52 -31
88 -81 49z"></path>
<path d="M3870 5443 c-39 -7 -50 -22 -50 -64 0 -36 2 -39 27 -39 14 0 35 -8
45 -17 18 -16 20 -15 45 9 22 22 25 32 19 62 -5 27 -14 40 -32 46 -14 6 -26 9
-27 9 -1 -1 -13 -4 -27 -6z m45 -58 c0 -5 -10 -11 -22 -13 -16 -2 -23 2 -23
13 0 11 7 15 23 13 12 -2 22 -7 22 -13z"></path>
<path d="M2557 5403 c-11 -10 -8 -62 3 -84 15 -27 55 -24 79 7 26 33 26 39 1
64 -19 19 -69 27 -83 13z"></path>
<path d="M4113 5378 c-4 -7 -17 -18 -28 -24 -11 -6 -22 -19 -23 -29 -4 -20 43
-64 70 -65 18 0 78 46 78 60 0 5 -12 22 -26 39 -27 32 -57 40 -71 19z"></path>
<path d="M2331 5326 c-62 -13 -71 -26 -41 -56 19 -19 29 -21 68 -15 59 9 62
11 62 40 0 35 -26 43 -89 31z"></path>
<path d="M4314 5266 c-11 -29 1 -81 19 -84 38 -8 87 9 104 35 16 25 16 26 -6
44 -28 23 -109 26 -117 5z"></path>
<path d="M2054 5225 c-4 -9 -2 -30 3 -48 7 -27 14 -32 45 -35 46 -4 70 19 66
62 -3 30 -5 31 -56 34 -41 2 -54 0 -58 -13z"></path>
<path d="M4585 5171 c-25 -15 -30 -24 -30 -57 0 -39 1 -39 41 -42 44 -3 57 6
67 49 7 27 -15 70 -36 68 -7 0 -25 -8 -42 -18z"></path>
<path d="M1820 5109 c-12 -29 -11 -32 18 -62 27 -26 34 -29 54 -20 13 6 30 22
37 37 13 23 12 28 -4 47 -11 11 -27 18 -37 16 -10 -3 -21 -1 -24 4 -11 18 -32
8 -44 -22z"></path>
<path d="M4782 5047 c-29 -30 -28 -71 0 -91 37 -26 65 -20 93 22 l26 37 -33
28 c-39 33 -58 34 -86 4z"></path>
<path d="M1620 4995 c-32 -11 -35 -16 -35 -51 l0 -39 51 0 c29 1 59 7 68 14
23 19 20 57 -6 75 -26 18 -30 18 -78 1z"></path>
<path d="M3913 4922 c-33 -26 -38 -58 -12 -76 20 -13 25 -13 51 0 35 18 45 39
27 60 -23 28 -43 33 -66 16z"></path>
<path d="M4967 4903 c-4 -3 -7 -26 -7 -50 l0 -44 48 7 c58 8 62 10 62 35 0 40
-19 59 -59 59 -21 0 -41 -3 -44 -7z"></path>
<path d="M3284 4878 c-5 -7 -15 -26 -24 -42 -27 -53 -53 -57 -111 -14 -9 6
-24 8 -33 5 -24 -9 -4 -44 37 -63 29 -14 35 -13 72 5 45 22 55 18 80 -34 18
-40 41 -44 86 -18 38 23 37 33 -5 33 -19 0 -47 5 -61 10 -25 10 -27 13 -20 48
12 56 11 75 -2 79 -6 2 -15 -2 -19 -9z"></path>
<path d="M1402 4844 c-31 -21 -31 -88 -1 -105 30 -15 62 1 82 42 15 32 15 35
-5 56 -25 27 -45 29 -76 7z"></path>
<path d="M5090 4747 c0 -7 -18 -31 -40 -52 -22 -21 -40 -45 -40 -52 0 -7 -11
-20 -25 -29 -14 -9 -25 -24 -25 -33 0 -32 -101 -166 -191 -251 -89 -85 -124
-112 -182 -139 -26 -13 -51 -31 -56 -40 -11 -20 -97 -65 -110 -57 -4 3 -16 -3
-26 -14 -11 -12 -31 -20 -50 -20 -17 0 -40 -7 -51 -15 -10 -8 -26 -15 -35 -15
-9 0 -27 -8 -40 -18 -13 -11 -36 -22 -51 -26 -36 -8 -98 -49 -94 -61 5 -19 42
-16 61 5 10 11 28 20 41 20 13 0 28 8 33 19 7 12 25 20 56 23 25 3 54 13 64
22 10 9 25 16 35 16 28 0 29 -27 2 -63 -30 -39 -32 -47 -11 -47 8 0 22 -11 31
-25 16 -24 44 -34 44 -16 0 4 -9 20 -20 34 -21 27 -26 62 -10 72 6 3 10 20 10
36 0 25 6 32 43 48 23 10 56 29 72 43 17 14 59 40 95 58 49 25 94 63 182 152
65 65 127 135 138 156 11 20 35 57 53 82 104 141 136 200 108 200 -6 0 -11 -6
-11 -13z"></path>
<path d="M3150 4701 c-14 -14 -35 -31 -45 -37 -16 -10 -18 -15 -8 -25 11 -10
19 -10 48 4 59 28 105 18 105 -23 0 -26 38 -56 52 -42 8 8 7 17 -6 36 -9 14
-16 37 -16 52 0 25 -2 26 -35 20 -31 -6 -36 -4 -45 19 -12 30 -18 30 -50 -4z"></path>
<path d="M1235 4689 c-4 -5 -18 -14 -31 -19 -21 -8 -24 -16 -22 -45 2 -40 11
-49 48 -58 33 -8 43 0 65 47 l19 39 -28 23 c-30 26 -42 29 -51 13z"></path>
<path d="M2265 4564 c-16 -25 -21 -26 -71 -20 -63 7 -69 -4 -29 -52 31 -37 31
-45 3 -65 -17 -11 -20 -18 -12 -27 8 -8 14 -9 18 -1 14 22 54 11 79 -20 30
-39 52 -31 44 16 -7 41 7 55 55 55 44 0 50 15 11 25 -16 3 -39 13 -52 22 -20
13 -22 20 -17 54 7 45 -4 50 -29 13z m13 -60 c28 -20 28 -35 -2 -63 -20 -19
-28 -21 -45 -12 -34 19 -23 91 14 91 6 0 21 -7 33 -16z"></path>
<path d="M1016 4488 c-12 -39 -14 -63 -6 -83 9 -23 10 -23 52 -8 57 19 61 24
53 67 -7 35 -9 36 -51 36 -27 0 -46 -5 -48 -12z"></path>
<path d="M2689 4467 c-46 -15 -63 -30 -102 -86 -31 -44 -32 -50 -31 -142 1
-73 6 -106 23 -143 11 -27 21 -56 21 -66 0 -9 9 -25 20 -35 11 -10 20 -25 20
-32 0 -8 6 -13 13 -10 14 5 13 47 -4 139 -18 97 -8 114 131 236 40 36 44 44
43 83 -1 23 -6 45 -10 50 -15 14 -88 17 -124 6z m78 -32 c32 -22 20 -50 -56
-130 -37 -38 -74 -81 -83 -95 -9 -14 -19 -22 -22 -19 -4 3 -9 35 -12 70 -6 62
-5 65 31 112 33 43 80 75 110 77 6 0 20 -7 32 -15z"></path>
<path d="M5471 4356 c-27 -29 -25 -69 4 -74 11 -2 28 -11 37 -20 16 -14 20
-13 43 12 28 30 30 44 13 81 -15 34 -65 35 -97 1z"></path>
<path d="M3430 4350 c-14 -4 -40 -8 -59 -9 -21 -1 -55 -16 -93 -41 -33 -22
-69 -40 -80 -40 -11 0 -34 -10 -51 -22 -56 -39 -215 -207 -222 -236 -3 -15
-12 -34 -20 -42 -7 -8 -16 -26 -20 -40 -4 -14 -14 -32 -22 -41 -7 -9 -16 -33
-20 -53 -4 -27 -2 -37 11 -42 19 -7 46 12 46 33 0 27 54 106 110 161 63 62
124 93 229 118 70 17 78 17 140 1 64 -16 68 -16 158 6 109 27 132 48 139 129
5 45 2 57 -18 80 -23 28 -23 28 -163 43 -22 2 -51 0 -65 -5z m145 -30 c78 -18
102 -96 44 -144 -17 -14 -37 -26 -45 -26 -9 0 -38 -7 -65 -16 -44 -15 -60 -15
-124 -4 -67 12 -82 11 -172 -10 -74 -17 -110 -32 -146 -58 -38 -27 -51 -32
-60 -23 -9 10 6 30 68 90 152 146 356 225 500 191z"></path>
<path d="M872 4284 c-16 -11 -22 -25 -22 -51 l0 -36 62 7 c34 3 66 12 70 19
17 25 3 49 -37 63 -50 17 -46 17 -73 -2z"></path>
<path d="M5602 4153 c-36 -32 -36 -58 -2 -83 34 -24 88 -22 109 4 19 22 2 64
-32 81 -39 19 -50 19 -75 -2z"></path>
<path d="M2025 4100 c-55 -4 -108 -13 -135 -25 -67 -28 -140 -98 -189 -183
-41 -71 -44 -82 -49 -166 -8 -171 24 -250 149 -364 56 -51 139 -102 167 -102
9 0 24 -8 35 -17 17 -16 43 -18 206 -20 160 -1 194 1 241 18 30 10 60 19 68
19 7 0 38 12 69 26 48 23 53 28 40 41 -13 13 -26 12 -113 -12 -80 -22 -132
-29 -269 -36 -93 -4 -178 -11 -187 -14 -11 -4 -28 1 -44 14 -15 12 -35 21 -46
21 -10 0 -37 17 -61 38 -23 21 -50 42 -59 45 -10 3 -26 20 -36 37 -10 16 -34
40 -53 52 -57 38 -72 83 -73 217 -1 105 1 121 24 165 32 64 132 165 192 194
30 15 74 25 126 29 75 5 79 5 85 -16 3 -11 4 -21 4 -21 -41 -2 -123 -24 -151
-42 -122 -75 -196 -184 -196 -290 0 -69 16 -146 35 -172 23 -30 31 -10 12 29
-27 57 -23 192 7 248 43 82 72 111 152 151 74 38 83 40 175 40 79 1 100 -2
116 -16 11 -10 24 -18 30 -18 5 0 31 -17 57 -37 70 -54 85 -102 70 -217 -6
-38 -17 -58 -57 -102 -54 -60 -54 -84 1 -57 41 20 90 75 97 111 3 15 10 43 15
62 11 41 4 110 -16 163 -17 46 -64 107 -81 107 -7 0 -17 9 -23 21 -7 11 -26
27 -43 36 -18 8 -43 20 -57 28 -31 16 -118 22 -235 15z m208 -67 c-7 -2 -19
-2 -25 0 -7 3 -2 5 12 5 14 0 19 -2 13 -5z"></path>
<path d="M718 4067 l-27 -34 25 -37 c27 -40 36 -43 54 -21 7 8 18 15 25 15 27
0 35 25 21 65 -12 33 -19 41 -43 43 -22 2 -34 -5 -55 -31z"></path>
<path d="M5720 3931 c-21 -6 -25 -13 -25 -46 0 -40 0 -40 43 -43 69 -5 95 35
50 78 -23 21 -28 22 -68 11z"></path>
<path d="M3904 3877 c-33 -29 -25 -47 22 -47 27 0 37 5 43 23 9 24 -3 47 -25
47 -7 0 -25 -11 -40 -23z"></path>
<path d="M4215 3880 c-3 -11 -13 -20 -21 -20 -8 0 -14 -4 -14 -10 0 -14 8 -13
57 11 50 24 55 39 14 39 -21 0 -32 -6 -36 -20z"></path>
<path d="M643 3853 c-68 -9 -65 -85 3 -96 46 -8 64 5 64 47 0 29 -16 58 -29
54 -4 0 -21 -3 -38 -5z"></path>
<path d="M4343 3845 c-6 -9 -21 -22 -34 -28 -13 -7 -25 -23 -27 -35 -3 -17 -8
-21 -25 -17 -16 5 -31 -3 -57 -30 -18 -19 -38 -35 -42 -35 -5 0 -36 -22 -69
-50 -33 -27 -69 -55 -81 -61 -12 -6 -53 -38 -92 -70 -97 -80 -110 -91 -193
-157 -139 -111 -239 -201 -333 -299 -155 -161 -184 -195 -214 -253 -16 -30
-46 -82 -67 -114 -41 -63 -47 -84 -28 -103 17 -17 3 -49 -15 -34 -15 13 -26 5
-26 -21 0 -15 5 -18 23 -13 30 9 47 33 47 65 0 15 9 35 21 46 11 10 27 32 35
49 14 30 20 42 61 106 13 19 22 46 21 59 -2 17 3 25 16 28 10 2 89 75 176 163
86 87 171 169 188 181 17 13 58 46 91 73 102 85 168 135 177 135 5 0 25 16 44
36 38 39 180 150 215 168 44 23 226 189 223 204 -4 22 -25 26 -35 7z"></path>
<path d="M3769 3811 c-13 -10 -34 -21 -45 -25 -12 -4 -29 -15 -39 -26 -10 -11
-26 -20 -35 -20 -10 0 -23 -7 -30 -16 -8 -8 -27 -22 -44 -30 -45 -21 -73 -39
-94 -57 -10 -10 -25 -17 -34 -17 -8 0 -26 -8 -39 -19 -13 -10 -35 -22 -48 -26
-14 -4 -47 -25 -74 -46 -27 -22 -54 -39 -60 -39 -6 0 -19 -7 -29 -17 -10 -9
-27 -21 -37 -27 -32 -18 -140 -104 -237 -188 -115 -99 -176 -171 -172 -201 5
-38 32 -30 74 23 86 112 127 146 467 393 28 20 59 37 68 37 9 0 24 9 34 20 10
11 22 20 27 20 4 0 57 29 116 65 59 36 116 71 127 78 11 7 33 22 48 35 16 12
34 22 42 22 7 0 18 6 24 14 7 8 27 18 44 22 44 9 50 14 36 30 -16 20 -62 17
-90 -5z"></path>
<path d="M4064 3809 c-3 -6 -22 -18 -41 -25 -38 -16 -39 -37 -2 -42 28 -3 86
49 75 67 -9 14 -23 14 -32 0z"></path>
<path d="M4401 3724 c-34 -41 -65 -83 -68 -92 -3 -9 -29 -46 -58 -82 -28 -36
-62 -81 -75 -100 -36 -52 -106 -142 -130 -166 -11 -12 -20 -29 -20 -38 0 -9
-11 -21 -24 -26 -13 -5 -34 -24 -46 -42 -13 -18 -36 -46 -52 -63 -75 -78 -98
-105 -98 -114 0 -6 -13 -17 -30 -26 -18 -9 -32 -26 -36 -43 -4 -15 -13 -38
-21 -50 -32 -51 1 -31 87 54 100 98 220 236 220 252 0 6 6 15 13 19 18 10 117
128 151 179 14 21 37 56 51 76 14 20 34 42 45 48 13 7 20 21 20 42 0 18 9 40
20 52 115 118 150 172 121 190 -5 3 -36 -28 -70 -70z"></path>
<path d="M5791 3704 c-39 -49 -21 -104 34 -104 28 0 37 6 56 36 l22 37 -31 28
c-40 36 -55 36 -81 3z"></path>
<path d="M3761 3613 c-56 -43 -148 -114 -204 -158 -56 -44 -118 -92 -137 -105
-19 -14 -61 -49 -93 -80 -32 -30 -64 -57 -70 -60 -7 -3 -92 -83 -189 -178
-120 -118 -179 -183 -183 -202 -3 -15 -14 -30 -24 -33 -25 -6 -88 -134 -73
-149 12 -12 42 5 42 24 0 5 16 25 36 43 26 25 34 39 29 54 -4 14 0 21 15 26
11 4 28 19 38 33 30 49 427 432 446 432 6 0 47 32 91 71 44 40 92 79 106 88
14 9 44 31 65 49 73 62 187 144 220 158 29 12 44 31 44 55 0 5 -13 9 -29 9
-20 0 -58 -22 -130 -77z"></path>
<path d="M502 3624 c-16 -11 -22 -25 -22 -55 0 -34 4 -41 27 -50 37 -14 90 -3
103 21 17 32 12 60 -14 70 -13 5 -27 14 -31 19 -9 16 -37 13 -63 -5z"></path>
<path d="M2628 3619 c-27 -15 -22 -52 11 -83 32 -31 65 -30 59 1 -2 13 -11 17
-31 15 -18 -2 -27 1 -27 11 0 19 30 31 44 17 14 -14 26 -12 26 5 0 8 -13 21
-30 30 -34 18 -30 17 -52 4z"></path>
<path d="M4430 3586 c-5 -13 -13 -27 -18 -30 -6 -3 -26 -39 -46 -78 -19 -40
-56 -104 -81 -143 -24 -38 -50 -81 -56 -95 -6 -14 -15 -32 -20 -40 -5 -8 -15
-26 -21 -40 -7 -14 -28 -46 -48 -71 -19 -26 -43 -59 -52 -75 -32 -54 -119
-174 -172 -240 -15 -18 -26 -35 -26 -38 0 -7 -120 -133 -268 -283 -65 -65
-111 -102 -173 -139 -11 -6 -27 -18 -37 -27 -10 -10 -23 -17 -29 -17 -13 0
-43 -33 -43 -48 0 -32 72 -4 153 59 27 22 52 39 56 39 9 0 242 231 313 311 72
81 116 137 172 219 25 36 58 83 74 105 81 114 103 148 132 201 17 33 42 77 55
99 13 22 30 51 37 65 7 14 30 53 51 86 20 34 37 70 37 80 0 10 16 35 37 56 30
31 34 40 23 53 -18 22 -39 18 -50 -9z"></path>
<path d="M1856 3483 c-10 -10 85 -103 106 -103 10 0 18 5 18 10 0 6 -3 10 -8
10 -4 0 -28 20 -54 45 -51 48 -51 49 -62 38z"></path>
<path d="M5835 3460 c-25 -26 -27 -33 -17 -55 6 -14 17 -25 23 -25 7 0 21 -8
31 -17 17 -15 20 -15 48 12 39 37 45 60 26 90 -24 36 -74 34 -111 -5z"></path>
<path d="M443 3380 c-40 -24 -41 -39 -5 -72 25 -24 30 -25 62 -13 26 9 36 18
38 38 8 63 -35 84 -95 47z"></path>
<path d="M2716 3379 c-15 -18 -14 -39 2 -39 11 0 31 49 23 54 -4 3 -15 -4 -25
-15z"></path>
<path d="M2010 3351 c0 -14 73 -49 111 -53 46 -4 49 15 4 25 -20 4 -46 14 -58
22 -24 17 -57 20 -57 6z"></path>
<path d="M1411 3271 c-36 -10 -47 -34 -33 -67 12 -25 16 -26 57 -21 25 4 47 2
50 -3 10 -16 25 -12 25 6 0 17 -57 95 -68 93 -4 -1 -18 -4 -31 -8z"></path>
<path d="M5875 3220 c-25 -26 -27 -33 -17 -54 15 -32 61 -42 102 -21 44 23 47
41 14 76 -35 37 -63 37 -99 -1z"></path>
<path d="M387 3132 c-24 -26 -21 -59 6 -77 22 -14 28 -14 61 0 43 18 53 37 38
71 -9 19 -19 24 -50 24 -25 0 -45 -7 -55 -18z"></path>
<path d="M5920 3003 c-30 -12 -70 -45 -70 -59 0 -25 38 -54 73 -54 38 0 77 34
77 67 0 11 -11 28 -25 37 -26 17 -31 18 -55 9z"></path>
<path d="M2697 2946 c-46 -37 -69 -157 -47 -250 8 -37 28 -61 40 -50 3 3 7 56
10 117 4 80 11 123 24 150 24 48 11 63 -27 33z"></path>
<path d="M1593 2927 c-59 -9 -89 -19 -106 -35 -13 -12 -30 -22 -38 -22 -8 -1
-35 -20 -60 -43 -34 -31 -48 -53 -53 -82 -4 -22 -15 -48 -24 -59 -16 -17 -16
-19 6 -33 12 -9 22 -21 22 -28 0 -7 7 -18 15 -25 11 -9 15 -40 17 -118 l3
-106 34 -9 c19 -5 44 -15 55 -23 28 -19 55 -18 99 6 20 11 44 20 52 20 9 0 20
11 25 24 5 13 14 27 20 31 6 3 26 37 44 73 37 72 100 152 120 152 7 0 21 9 30
19 10 11 41 25 69 31 28 6 55 14 61 19 20 16 82 21 131 12 68 -13 81 2 36 39
-19 16 -47 32 -63 35 -16 4 -41 17 -56 29 -102 84 -265 119 -439 93z m228 -33
c45 -8 101 -25 123 -36 59 -30 108 -70 99 -79 -11 -11 -130 -49 -153 -49 -9 0
-25 -9 -35 -20 -10 -11 -24 -20 -31 -20 -17 0 -101 -96 -125 -143 -35 -68 -90
-137 -109 -137 -11 0 -22 -5 -25 -11 -11 -16 -57 -31 -81 -25 -34 9 -72 74
-79 136 -4 30 -16 83 -27 117 -24 78 -18 112 30 165 46 51 120 89 202 104 89
17 115 16 211 -2z"></path>
<path d="M367 2914 c-4 -4 -7 -17 -7 -29 0 -11 -6 -27 -12 -33 -10 -10 -6 -18
17 -37 37 -30 40 -30 74 -6 23 16 27 27 27 63 l-1 43 -45 3 c-25 2 -49 0 -53
-4z"></path>
<path d="M3683 2850 c-27 -6 -111 -76 -223 -186 -39 -39 -113 -94 -124 -94 -7
0 -30 -13 -51 -30 -21 -16 -44 -30 -52 -30 -7 0 -36 -11 -63 -25 -47 -24 -62
-46 -40 -60 13 -8 107 26 155 56 22 14 52 32 66 40 44 24 127 89 133 104 3 8
12 15 20 15 8 0 21 9 28 19 8 11 53 52 101 91 55 45 87 79 87 91 0 10 -1 19
-2 18 -2 -1 -18 -4 -35 -9z"></path>
<path d="M4208 2809 c-20 -21 -28 -41 -28 -65 0 -28 -5 -36 -25 -44 -14 -5
-25 -14 -25 -19 0 -28 -152 -220 -280 -353 -89 -93 -195 -178 -222 -178 -6 0
-20 -8 -31 -17 -15 -15 -38 -18 -116 -18 -97 0 -98 0 -142 36 -40 33 -57 39
-143 51 -14 2 -21 -5 -26 -22 -5 -20 -14 -26 -50 -33 -63 -11 -196 1 -211 20
-7 8 -25 21 -41 29 -15 8 -35 28 -43 44 -18 35 -40 38 -56 8 -10 -19 -8 -25
21 -49 18 -15 38 -38 44 -51 7 -14 22 -24 41 -26 16 -2 38 -10 49 -18 28 -19
189 -20 205 0 31 37 139 36 195 -2 37 -26 45 -27 160 -27 113 0 124 2 170 28
27 15 67 42 90 60 23 18 61 46 85 62 23 16 47 39 52 52 5 13 13 23 18 23 6 0
28 24 51 53 22 28 65 84 95 122 30 39 55 74 55 79 0 4 18 30 40 56 22 26 40
52 40 57 0 4 13 24 28 43 28 34 52 88 52 116 0 22 -23 15 -52 -17z"></path>
<path d="M4669 2759 c-8 -16 -8 -28 0 -45 13 -30 30 -30 66 -3 l27 22 -29 23
c-35 29 -49 30 -64 3z"></path>
<path d="M5856 2725 c-32 -49 -18 -69 55 -71 58 -3 79 8 61 33 -6 10 -16 28
-22 41 -14 32 -72 31 -94 -3z"></path>
<path d="M395 2673 c-42 -10 -62 -77 -30 -103 25 -21 125 14 125 44 0 15 -52
66 -66 65 -5 -1 -18 -3 -29 -6z"></path>
<path d="M2727 2633 c-24 -4 -26 -8 -21 -31 4 -15 11 -35 16 -45 5 -10 5 -32
-2 -55 -15 -56 -13 -197 4 -211 10 -9 16 -8 26 4 12 14 10 58 -6 121 -3 13 3
32 18 50 22 26 23 36 18 98 -5 72 -8 75 -53 69z"></path>
<path d="M5817 2503 c-12 -12 -7 -90 6 -101 19 -16 78 2 107 33 l24 25 -20 21
c-20 20 -104 36 -117 22z"></path>
<path d="M2835 2490 c-12 -19 4 -59 30 -76 26 -17 75 -12 75 7 0 12 -40 48
-54 49 -5 0 -17 7 -27 16 -12 11 -19 12 -24 4z"></path>
<path d="M395 2420 c-13 -21 -13 -80 1 -91 7 -5 32 -9 56 -7 l43 3 -2 39 c-2
22 -7 44 -11 48 -16 16 -79 21 -87 8z"></path>
<path d="M3015 2391 c-7 -12 12 -24 25 -16 11 7 4 25 -10 25 -5 0 -11 -4 -15
-9z"></path>
<path d="M2900 2342 c0 -10 9 -27 20 -37 17 -16 20 -16 26 -2 10 27 0 52 -24
55 -16 3 -22 -2 -22 -16z"></path>
<path d="M2310 2340 c0 -5 5 -10 10 -10 6 0 10 5 10 10 0 6 -4 10 -10 10 -5 0
-10 -4 -10 -10z"></path>
<path d="M2367 2303 c-15 -15 -4 -38 46 -96 99 -115 135 -221 138 -405 1 -69
-3 -127 -8 -134 -6 -7 -23 -42 -39 -78 -25 -58 -83 -139 -107 -149 -5 -2 -32
-18 -60 -37 -28 -19 -67 -37 -87 -40 -19 -4 -40 -11 -46 -15 -24 -20 -104 -22
-162 -5 -101 30 -121 40 -176 86 -75 63 -106 126 -106 217 0 57 4 73 20 88 11
10 20 29 20 42 0 33 54 85 121 117 72 34 173 37 212 6 26 -21 67 -27 67 -11 0
25 -16 42 -56 61 -37 18 -56 21 -126 17 -117 -6 -133 -12 -221 -85 -78 -65
-97 -87 -97 -117 0 -9 -10 -29 -22 -45 -19 -27 -21 -37 -15 -126 4 -53 11
-102 16 -108 5 -6 12 -30 16 -53 12 -74 112 -181 211 -225 129 -57 300 -76
396 -44 24 8 60 18 80 21 20 4 44 16 54 26 9 10 26 19 36 19 31 0 132 113 171
193 51 102 61 158 54 318 -4 112 -9 142 -26 174 -12 22 -21 45 -21 51 0 6 -7
17 -15 24 -8 7 -15 25 -15 41 0 21 -7 33 -22 40 -13 6 -32 29 -42 51 -20 42
-153 188 -172 188 -6 0 -14 -3 -17 -7z m258 -363 c9 -19 23 -49 31 -67 17 -37
19 -253 3 -322 -26 -114 -121 -248 -212 -299 -30 -17 -75 -32 -106 -35 -29 -4
-58 -10 -65 -15 -11 -9 -150 -1 -276 16 -73 10 -150 53 -150 84 0 9 -12 25
-27 35 -53 32 -70 53 -66 77 4 17 -4 32 -29 55 l-33 31 0 97 c1 81 5 105 23
141 23 42 42 55 42 27 0 -9 -7 -27 -16 -41 -35 -53 6 -254 52 -254 8 0 14 -5
14 -11 0 -14 53 -66 91 -91 36 -23 159 -58 206 -58 68 0 204 40 259 76 49 32
110 94 162 163 55 73 74 208 52 375 -14 112 0 116 45 16z"></path>
<path d="M3055 2295 c-16 -8 -42 -14 -56 -15 -65 -1 -36 -40 30 -40 26 0 52
-5 59 -12 10 -9 16 -9 28 4 15 15 15 19 -5 47 -12 17 -23 31 -24 30 -1 0 -15
-7 -32 -14z"></path>
<path d="M4547 2277 c-15 -22 -15 -22 -63 -5 -50 18 -72 12 -61 -15 6 -16 55
-28 83 -21 28 7 74 -13 74 -32 0 -13 -3 -14 -14 -5 -24 20 -77 7 -93 -23 -7
-14 -18 -26 -23 -26 -5 0 -14 -9 -21 -21 -16 -30 4 -48 29 -26 10 9 33 20 50
23 28 6 33 3 42 -20 6 -16 17 -26 29 -26 29 0 37 21 14 39 -38 30 -34 45 16
57 50 11 63 37 21 42 -34 5 -50 20 -50 48 0 32 -15 38 -33 11z"></path>
<path d="M5764 2260 c-23 -9 -38 -48 -28 -73 7 -20 59 -29 88 -15 19 8 24 17
23 42 -2 17 -6 37 -10 44 -9 14 -42 15 -73 2z"></path>
<path d="M440 2171 c-14 -26 -13 -64 2 -79 16 -16 90 -15 112 1 17 12 17 15
-5 51 -18 31 -26 36 -45 32 -12 -3 -26 -2 -29 4 -10 16 -23 12 -35 -9z"></path>
<path d="M1580 2120 c0 -12 -5 -30 -11 -41 -9 -17 -17 -19 -60 -13 -39 5 -49
4 -49 -8 0 -24 44 -42 68 -29 11 6 30 11 41 11 25 0 43 32 39 67 -4 32 -28 44
-28 13z"></path>
<path d="M4063 2057 c-5 -6 -21 -75 -36 -152 -40 -217 -40 -212 -23 -243 9
-15 20 -39 26 -54 5 -15 28 -41 51 -58 61 -43 122 -42 186 4 27 19 65 39 85
44 44 12 86 43 103 76 14 26 6 96 -14 120 -16 19 -88 34 -138 29 -53 -6 -113
26 -161 85 -37 47 -52 82 -52 122 0 33 -13 46 -27 27z m142 -239 c17 -9 66
-18 110 -21 66 -5 83 -10 97 -28 10 -11 18 -30 18 -40 0 -21 -66 -99 -84 -99
-6 0 -38 -14 -72 -31 -58 -30 -62 -31 -117 -19 -31 6 -57 16 -57 21 0 5 -11
14 -23 18 -39 15 -52 80 -37 192 19 140 22 143 84 77 28 -31 65 -62 81 -70z"></path>
<path d="M5659 2021 c-22 -27 -23 -39 -9 -75 8 -21 16 -26 44 -26 61 0 86 15
86 53 0 66 -81 99 -121 48z"></path>
<path d="M1617 2024 c-15 -16 -5 -24 29 -24 24 0 34 4 32 13 -5 13 -50 22 -61
11z"></path>
<path d="M1466 1978 c-33 -47 -11 -62 45 -32 41 21 59 12 59 -29 0 -41 21 -65
39 -43 8 10 9 26 2 56 -11 49 -6 43 -57 58 -58 17 -71 15 -88 -10z"></path>
<path d="M522 1940 c-26 -35 -27 -48 -6 -78 17 -25 75 -31 91 -9 17 21 23 65
13 91 -14 39 -68 37 -98 -4z"></path>
<path d="M3047 1894 c-8 -8 22 -54 37 -54 34 -2 122 -109 133 -163 4 -17 12
-43 20 -57 21 -40 17 -186 -7 -235 -11 -22 -19 -46 -20 -53 0 -13 -30 -60 -63
-98 -12 -15 -18 -40 -20 -83 -1 -56 1 -64 30 -92 28 -28 39 -32 122 -41 91
-10 92 -10 127 17 65 50 67 57 68 258 0 169 -2 185 -22 222 -12 22 -22 49 -22
61 0 12 -18 44 -40 72 -22 27 -40 54 -40 59 0 5 -19 22 -41 39 -23 16 -63 48
-89 72 -26 23 -54 42 -62 42 -8 0 -23 9 -33 20 -17 19 -64 27 -78 14z m269
-196 c46 -50 69 -86 100 -163 28 -67 29 -77 29 -231 0 -134 -3 -165 -16 -180
-9 -11 -19 -27 -22 -37 -15 -42 -113 -45 -189 -6 -68 35 -73 78 -18 167 80
131 100 278 56 407 -18 50 -22 73 -14 82 13 16 33 5 74 -39z"></path>
<path d="M3652 1848 c-24 -24 -14 -45 25 -51 48 -8 61 4 39 37 -18 28 -45 33
-64 14z"></path>
<path d="M5557 1813 c-23 -6 -39 -47 -31 -78 6 -23 9 -24 53 -18 94 12 115 37
68 81 -22 21 -50 25 -90 15z"></path>
<path d="M642 1733 c-13 -3 -27 -16 -33 -31 -23 -60 38 -103 89 -65 33 25 38
47 18 78 -16 24 -27 27 -74 18z"></path>
<path d="M5405 1580 c-28 -29 -29 -32 -15 -57 8 -14 23 -31 32 -37 24 -15 69
4 88 37 13 24 13 30 0 55 -23 41 -67 42 -105 2z"></path>
<path d="M3586 1561 c-4 -5 -2 -12 3 -15 5 -4 15 -23 22 -44 7 -20 25 -53 40
-72 16 -19 35 -52 44 -73 9 -21 23 -41 33 -44 9 -3 24 -12 32 -19 13 -11 83
-34 156 -51 28 -6 114 23 142 49 29 28 28 53 -3 94 l-25 32 -102 -5 c-122 -5
-136 -9 -119 -26 8 -8 47 -12 114 -12 l102 0 3 -27 c5 -40 -29 -58 -108 -58
-41 0 -76 6 -95 16 -16 9 -42 23 -57 31 -31 16 -36 31 -13 39 16 7 21 34 6 34
-16 0 -116 109 -121 132 -6 24 -43 37 -54 19z"></path>
<path d="M760 1521 c-31 -5 -35 -10 -38 -41 -3 -42 18 -77 39 -64 8 5 22 7 32
6 26 -5 67 25 67 48 0 23 -34 61 -52 59 -7 -1 -29 -4 -48 -8z"></path>
<path d="M5260 1395 c-21 -26 -25 -99 -5 -115 15 -12 22 -12 53 5 30 16 38 27
40 53 6 58 -55 97 -88 57z"></path>
<path d="M886 1318 c-22 -69 -8 -106 34 -93 12 4 27 2 34 -4 10 -8 17 -6 30 8
13 14 15 26 8 57 -8 38 -9 39 -55 42 -32 2 -48 -1 -51 -10z"></path>
<path d="M4242 1224 c-16 -11 -22 -24 -20 -42 3 -25 7 -27 48 -27 41 0 45 2
48 27 2 18 -4 31 -20 42 -12 9 -25 16 -28 16 -3 0 -16 -7 -28 -16z"></path>
<path d="M5071 1190 c-14 -12 -24 -32 -25 -52 -1 -31 1 -33 44 -39 25 -3 55
-3 66 2 27 10 37 46 21 79 -16 33 -72 39 -106 10z"></path>
<path d="M1042 1111 l-21 -39 24 -22 c17 -16 32 -21 61 -18 38 3 39 4 48 51
10 57 -2 79 -33 60 -11 -7 -23 -8 -32 -2 -22 14 -26 11 -47 -30z"></path>
<path d="M2794 1094 c5 -54 11 -63 25 -35 14 24 5 67 -15 75 -10 4 -13 -5 -10
-40z"></path>
<path d="M2730 1110 c0 -5 5 -10 10 -10 6 0 10 5 10 10 0 6 -4 10 -10 10 -5 0
-10 -4 -10 -10z"></path>
<path d="M4903 1040 c-13 -5 -23 -16 -23 -24 0 -7 -7 -16 -15 -20 -35 -13 6
-86 49 -86 26 0 76 55 76 83 0 39 -45 63 -87 47z"></path>
<path d="M1253 950 c-18 -21 -33 -45 -33 -52 0 -55 120 -49 134 7 5 19 0 34
-16 55 -31 39 -47 37 -85 -10z"></path>
<path d="M4658 857 c-35 -28 -35 -44 -1 -79 32 -34 49 -35 84 -5 33 28 41 51
29 82 -8 21 -16 25 -47 25 -24 -1 -48 -9 -65 -23z"></path>
<path d="M1445 816 c-30 -31 -32 -55 -4 -90 18 -23 26 -26 57 -20 55 10 63 20
60 78 l-3 51 -42 3 c-35 3 -48 -2 -68 -22z"></path>
<path d="M4430 731 c-13 -26 -13 -46 3 -74 16 -30 27 -37 59 -37 18 0 33 9 47
29 26 36 26 49 2 79 -25 29 -95 31 -111 3z"></path>
<path d="M1663 686 l-38 -34 18 -36 c15 -33 20 -36 61 -36 51 0 66 16 66 69 0
21 -8 35 -29 50 -16 12 -32 21 -35 21 -4 0 -23 -15 -43 -34z"></path>
<path d="M4204 623 c-3 -10 -10 -26 -15 -35 -14 -27 -11 -43 14 -66 31 -29 55
-28 89 5 33 32 35 51 7 87 -25 32 -86 37 -95 9z"></path>
<path d="M1908 593 c-30 -8 -52 -109 -25 -117 56 -18 68 -16 98 14 26 26 30
35 24 63 -4 17 -13 35 -19 39 -12 8 -50 9 -78 1z"></path>
<path d="M3942 507 c-18 -21 1 -70 32 -85 23 -12 31 -11 50 2 24 15 30 56 13
84 -11 16 -82 16 -95 -1z"></path>
<path d="M2150 497 c0 -8 -9 -22 -20 -32 -26 -24 -25 -37 5 -65 23 -22 27 -23
66 -10 23 8 43 20 46 28 8 19 -11 77 -24 77 -6 0 -15 3 -19 8 -13 12 -54 8
-54 -6z"></path>
<path d="M3690 435 c-23 -24 -23 -26 -7 -60 15 -31 21 -35 56 -35 47 0 63 17
59 62 -3 29 -6 33 -32 33 -16 0 -31 6 -33 13 -7 18 -17 15 -43 -13z"></path>
<path d="M2389 425 c-15 -8 -29 -21 -33 -30 -8 -23 11 -65 30 -65 10 0 26 -8
36 -17 18 -16 20 -16 43 12 30 37 31 69 5 95 -23 23 -45 25 -81 5z"></path>
<path d="M3450 393 c-36 -7 -42 -16 -35 -55 6 -33 10 -36 48 -41 35 -5 45 -3
59 16 23 29 23 64 -1 77 -20 10 -28 11 -71 3z"></path>
<path d="M2633 364 c-30 -34 -29 -45 7 -79 28 -27 32 -28 56 -14 33 17 52 45
60 87 l7 32 -54 0 c-45 0 -58 -5 -76 -26z"></path>
<path d="M2908 380 c-25 -15 -33 -66 -14 -95 22 -33 57 -40 96 -20 31 16 32
19 26 62 -3 24 -8 49 -12 54 -7 12 -74 11 -96 -1z"></path>
<path d="M3170 372 c0 -11 -7 -25 -15 -32 -23 -19 -18 -46 12 -70 37 -29 73
-23 95 17 15 24 17 39 10 65 -8 31 -11 33 -55 36 -41 3 -47 1 -47 -16z"></path>
</g>
</svg>