<?xml version="1.0" standalone="no"?>
<!DOCTYPE svg PUBLIC "-//W3C//DTD SVG 20010904//EN"
 "http://www.w3.org/TR/2001/REC-SVG-20010904/DTD/svg10.dtd">
<svg version="1.0" xmlns="http://www.w3.org/2000/svg"
 width="790pt" height="240pt" viewBox="0 50 700 150"
 preserveAspectRatio="xMidYMid meet" color = 'red'>

<g transform="translate(0.000000,262.000000) scale(0.100000,-0.100000)"
fill="#000000" stroke="none">

<path d="M1335 2040 c-3 -6 1 -13 10 -16 19 -8 30 0 20 15 -8 14 -22 14 -30 1z"/>
<path d="M2381 1979 c-50 -20 -163 -113 -259 -214 -80 -84 -103 -103 -121 -98
-25 6 -30 -21 -6 -31 12 -4 9 -15 -19 -54 -46 -63 -58 -73 -146 -121 -41 -22
-71 -41 -67 -41 5 0 17 5 28 11 11 6 25 9 32 6 7 -2 -5 -12 -27 -22 -90 -43
-259 -179 -334 -270 l-33 -40 3 42 c2 24 0 43 -4 43 -15 0 -20 -50 -9 -81 6
-18 11 -44 11 -59 0 -15 8 -38 19 -51 17 -21 28 -23 112 -26 81 -2 98 1 124
19 40 27 114 128 152 208 17 36 51 108 76 160 54 114 108 179 157 189 22 5 34
13 33 22 -1 8 21 30 49 49 59 40 222 226 258 293 13 24 21 51 17 60 -7 19 -12
20 -46 6z m-546 -567 c-6 -5 -53 -43 -105 -84 -117 -92 -185 -165 -211 -223
-11 -25 -23 -45 -27 -45 -12 1 -42 27 -42 37 0 34 226 236 330 296 45 25 73
35 55 19z m-26 -84 c-74 -110 -262 -279 -285 -255 -7 7 39 84 74 121 52 54
242 207 250 200 2 -1 -15 -31 -39 -66z m6 -45 c-63 -116 -149 -218 -223 -265
l-31 -19 -22 22 -22 22 42 21 c58 30 169 132 232 215 30 39 55 71 57 71 2 0
-13 -30 -33 -67z m45 5 c-7 -18 -29 -67 -49 -108 -44 -91 -144 -200 -184 -200
-32 0 -43 16 -20 28 43 24 145 141 198 227 58 95 79 115 55 53z m-390 -248 c6
-12 23 -26 38 -32 l27 -12 -25 -4 c-17 -3 -31 4 -47 23 -13 14 -23 30 -23 36
0 16 19 10 30 -11z"/>
<path d="M1420 1940 c-23 -24 -14 -47 20 -47 16 0 27 4 24 9 -3 5 -1 14 4 21
17 20 -29 36 -48 17z"/>
<path d="M1260 1924 c0 -9 5 -14 12 -12 18 6 21 28 4 28 -9 0 -16 -7 -16 -16z"/>
<path d="M4409 1853 c-41 -26 -76 -48 -78 -50 -2 -2 -1 -6 3 -10 9 -10 173 46
187 63 15 18 4 44 -19 44 -10 0 -52 -21 -93 -47z"/>
<path d="M1523 1813 c-21 -7 -15 -33 7 -33 11 0 20 6 20 14 0 18 -11 25 -27
19z"/>
<path d="M1581 1810 c-16 -9 -6 -30 15 -30 15 0 20 25 6 34 -4 2 -14 1 -21 -4z"/>
<path d="M1457 1803 c-13 -12 -7 -33 8 -33 8 0 15 9 15 20 0 20 -11 26 -23 13z"/>
<path d="M1640 1796 c0 -8 4 -17 9 -20 11 -7 33 18 24 27 -12 12 -33 7 -33 -7z"/>
<path d="M1391 1786 c-12 -14 -5 -26 16 -26 15 0 18 26 4 34 -5 3 -14 0 -20
-8z"/>
<path d="M1700 1786 c0 -15 24 -28 34 -19 13 14 5 33 -14 33 -11 0 -20 -6 -20
-14z"/>
<path d="M6676 1773 c-56 -60 -98 -219 -111 -415 -6 -101 8 -168 37 -168 29 0
38 25 38 102 l0 78 49 0 c26 0 75 -3 109 -6 l60 -7 7 -65 c9 -82 13 -92 36
-92 28 0 33 37 20 164 -21 202 -66 345 -131 414 -30 32 -82 30 -114 -5z m91
-15 c11 -13 28 -48 36 -78 15 -50 47 -228 47 -257 0 -8 -31 -13 -100 -15
l-100 -3 0 45 c0 131 36 301 68 320 24 13 26 13 49 -12z"/>
<path d="M1764 1779 c-10 -17 13 -36 27 -22 12 12 4 33 -11 33 -5 0 -12 -5
-16 -11z"/>
<path d="M4840 1780 c-112 -19 -170 -71 -170 -154 0 -41 5 -53 35 -83 36 -36
51 -38 69 -10 9 13 4 22 -23 45 -90 75 8 192 150 179 32 -3 72 -13 89 -23 35
-21 70 -79 70 -116 0 -55 -75 -128 -131 -128 -25 0 -26 2 -32 83 -7 90 -23
115 -58 96 -16 -8 -19 -22 -19 -77 0 -111 20 -396 28 -404 21 -21 31 15 39
137 7 113 10 130 26 133 27 5 70 -48 92 -113 29 -87 68 -143 107 -153 42 -12
58 2 32 27 -12 10 -31 45 -44 77 -26 67 -78 154 -91 154 -21 0 -6 16 29 32 66
30 105 107 88 172 -22 89 -154 147 -286 126z"/>
<path d="M5592 1778 c-7 -7 -12 -31 -12 -55 0 -110 -78 -407 -125 -476 -31
-44 -44 -44 -67 4 -22 45 -82 271 -103 390 -23 124 -29 139 -60 139 -14 0 -25
-1 -25 -2 -1 -2 -3 -135 -7 -295 -5 -265 -4 -293 11 -293 13 0 16 12 17 58 1
31 4 102 8 157 l6 100 33 -98 c70 -209 147 -279 208 -187 28 43 104 256 104
292 0 12 2 19 5 17 2 -3 11 -76 19 -164 15 -155 27 -199 43 -159 4 10 8 139 8
285 0 211 -3 269 -14 282 -16 20 -32 22 -49 5z"/>
<path d="M5737 1783 c-4 -3 -7 -76 -7 -162 0 -232 19 -327 77 -384 31 -32 43
-37 83 -37 55 0 85 25 101 85 l11 39 19 -54 c21 -60 32 -75 47 -66 7 4 7 18 1
39 -5 17 -9 143 -9 279 0 231 -1 248 -19 257 -13 7 -23 7 -35 -2 -15 -11 -18
-44 -25 -243 -6 -204 -10 -235 -27 -265 -35 -59 -95 -52 -124 14 -15 34 -20
81 -25 257 -4 118 -12 223 -17 233 -9 17 -39 23 -51 10z"/>
<path d="M6193 1774 c-3 -9 0 -118 7 -243 19 -328 21 -295 -18 -301 -18 -3
-33 -9 -32 -15 0 -6 72 -11 189 -13 155 -2 190 0 200 12 24 28 -23 39 -155 34
l-122 -4 1 246 c1 135 -1 257 -6 273 -5 20 -14 27 -33 27 -14 0 -27 -7 -31
-16z"/>
<path d="M1324 1769 c-10 -17 13 -36 27 -22 12 12 4 33 -11 33 -5 0 -12 -5
-16 -11z"/>
<path d="M3942 1760 c-136 -6 -164 -12 -149 -27 10 -9 250 -25 324 -21 63 4
96 19 78 37 -16 16 -100 19 -253 11z"/>
<path d="M4333 1751 c-151 -71 -165 -453 -20 -562 26 -20 44 -24 100 -24 68 0
68 0 112 46 56 60 80 133 80 249 0 129 -39 233 -105 282 -39 28 -116 33 -167
9z m150 -39 c34 -33 44 -70 53 -202 7 -117 -7 -237 -33 -276 -52 -80 -154 -67
-196 24 -20 42 -22 64 -22 212 0 145 2 170 20 205 38 75 119 92 178 37z"/>
<path d="M1820 1744 c0 -9 7 -14 17 -12 25 5 28 28 4 28 -12 0 -21 -6 -21 -16z"/>
<path d="M1262 1738 c7 -19 38 -22 38 -4 0 10 -9 16 -21 16 -12 0 -19 -5 -17
-12z"/>
<path d="M2811 1737 c-7 -9 -12 -105 -13 -283 l-3 -269 -33 -3 c-20 -2 -32 -8
-29 -15 5 -17 349 -22 378 -6 19 10 20 12 6 27 -20 20 -102 26 -195 14 -40 -4
-74 -6 -76 -3 -1 3 3 69 10 146 17 186 18 377 2 393 -16 16 -33 15 -47 -1z"/>
<path d="M3285 1726 c-73 -73 -135 -293 -135 -479 0 -72 3 -89 16 -94 34 -13
49 11 56 92 4 43 9 79 10 80 2 1 49 0 104 -3 l102 -4 7 -80 c6 -79 22 -105 47
-80 15 15 11 216 -7 333 -14 99 -54 207 -89 242 -26 25 -82 22 -111 -7z m84
-15 c24 -24 50 -138 58 -257 l6 -94 -100 0 -99 0 7 63 c9 76 37 209 50 245 12
30 38 62 51 62 4 0 17 -9 27 -19z"/>
<path d="M1887 1733 c-4 -3 -7 -12 -7 -20 0 -17 26 -17 33 1 8 21 -11 35 -26
19z"/>
<path d="M1210 1710 c0 -11 6 -20 13 -20 19 0 27 10 20 26 -8 21 -33 17 -33
-6z"/>
<path d="M1937 1704 c-14 -14 -7 -35 11 -32 9 2 17 10 17 17 0 16 -18 25 -28
15z"/>
<path d="M1163 1693 c-18 -6 -16 -33 1 -33 19 0 31 19 20 30 -5 4 -15 5 -21 3z"/>
<path d="M3885 1674 c-16 -16 -17 -35 -11 -198 9 -244 15 -306 31 -306 19 0
23 19 30 142 l7 107 87 -6 c72 -5 89 -3 100 11 11 14 10 17 -12 25 -14 6 -57
7 -96 4 l-71 -6 -1 89 c-2 109 -9 148 -30 152 -9 2 -24 -5 -34 -14z"/>
<path d="M1418 1673 c7 -3 16 -2 19 1 4 3 -2 6 -13 5 -11 0 -14 -3 -6 -6z"/>
<path d="M1714 1669 c-10 -17 13 -36 27 -22 12 12 4 33 -11 33 -5 0 -12 -5
-16 -11z"/>
<path d="M1107 1654 c-14 -14 -7 -35 11 -32 9 2 17 10 17 17 0 16 -18 25 -28
15z"/>
<path d="M1567 1652 c-4 -6 -15 -8 -24 -5 -12 5 -15 2 -10 -10 3 -9 1 -20 -6
-24 -7 -4 0 -10 17 -14 30 -8 70 16 49 29 -5 4 -12 14 -15 22 -3 10 -6 11 -11
2z"/>
<path d="M1057 1614 c-14 -14 -7 -35 11 -32 9 2 17 10 17 17 0 16 -18 25 -28
15z"/>
<path d="M1308 1582 c-22 -4 -24 -38 -2 -46 8 -3 21 0 29 7 16 17 -2 44 -27
39z"/>
<path d="M1010 1550 c0 -11 4 -20 9 -20 13 0 32 26 24 33 -13 14 -33 6 -33
-13z"/>
<path d="M1412 1554 c-26 -18 -30 -79 -7 -110 14 -18 14 -17 15 13 0 19 8 40
21 52 21 19 23 51 4 58 -6 2 -20 -4 -33 -13z"/>
<path d="M1565 1521 c-43 -19 -89 -66 -100 -102 -11 -33 0 -32 38 6 30 30 42
35 82 35 56 0 85 14 85 40 0 19 -27 40 -52 40 -7 0 -31 -9 -53 -19z"/>
<path d="M2104 1529 c-3 -6 -2 -15 4 -21 13 -13 32 -2 32 18 0 16 -26 19 -36
3z"/>
<path d="M970 1506 c0 -10 9 -16 21 -16 24 0 21 23 -4 28 -10 2 -17 -3 -17
-12z"/>
<path d="M2134 1479 c-10 -17 13 -36 27 -22 12 12 4 33 -11 33 -5 0 -12 -5
-16 -11z"/>
<path d="M1219 1457 c-51 -34 -65 -71 -48 -121 28 -81 139 -112 234 -66 l40
19 -40 -7 c-144 -25 -248 56 -170 133 30 31 73 32 104 4 22 -20 22 -28 6 -74
-6 -17 -4 -17 14 4 25 28 26 59 3 87 -39 49 -91 56 -143 21z"/>
<path d="M934 1459 c-3 -6 -2 -15 4 -21 13 -13 32 -2 32 18 0 16 -26 19 -36 3z"/>
<path d="M2160 1415 c0 -10 7 -15 18 -13 21 4 19 22 -2 26 -10 2 -16 -3 -16
-13z"/>
<path d="M911 1406 c-12 -14 -5 -26 16 -26 15 0 18 26 4 34 -5 3 -14 0 -20 -8z"/>
<path d="M1690 1398 c-165 -97 -250 -162 -250 -190 0 -7 13 2 29 20 28 30 222
162 239 162 4 0 17 7 28 15 30 23 -4 17 -46 -7z"/>
<path d="M2180 1360 c0 -15 5 -20 18 -18 9 2 17 10 17 18 0 8 -8 16 -17 18
-13 2 -18 -3 -18 -18z"/>
<path d="M887 1354 c-14 -15 -6 -34 14 -34 14 0 19 5 17 17 -3 18 -20 27 -31
17z"/>
<path d="M1402 1338 c6 -18 28 -21 28 -4 0 9 -7 16 -16 16 -9 0 -14 -5 -12
-12z"/>
<path d="M2194 1309 c-8 -14 11 -33 25 -25 6 4 11 14 11 22 0 16 -26 19 -36 3z"/>
<path d="M864 1289 c-3 -6 -2 -15 4 -21 13 -13 32 -2 32 18 0 16 -26 19 -36 3z"/>
<path d="M1100 1256 c0 -8 4 -17 8 -20 13 -8 35 11 28 23 -10 16 -36 14 -36
-3z"/>
<path d="M2200 1246 c0 -8 4 -17 8 -20 13 -8 35 11 28 23 -10 16 -36 14 -36
-3z"/>
<path d="M854 1229 c-3 -6 -2 -15 4 -21 13 -13 32 -2 32 18 0 16 -26 19 -36 3z"/>
<path d="M2200 1185 c0 -8 9 -15 20 -15 11 0 20 7 20 15 0 8 -9 15 -20 15 -11
0 -20 -7 -20 -15z"/>
<path d="M1133 1175 c-33 -14 -56 -45 -49 -67 2 -7 7 -25 10 -40 12 -52 72
-45 101 12 12 23 27 33 60 42 25 7 45 15 45 19 0 9 -95 49 -117 49 -10 -1 -32
-7 -50 -15z"/>
<path d="M850 1166 c0 -8 4 -17 9 -20 11 -7 33 18 24 27 -12 12 -33 7 -33 -7z"/>
<path d="M1910 1135 c0 -9 5 -15 11 -13 6 2 11 8 11 13 0 5 -5 11 -11 13 -6 2
-11 -4 -11 -13z"/>
<path d="M2196 1131 c-3 -5 0 -13 7 -19 15 -13 42 1 33 17 -9 13 -33 15 -40 2z"/>
<path d="M850 1106 c0 -8 4 -17 8 -20 13 -8 35 11 28 23 -10 16 -36 14 -36 -3z"/>
<path d="M2190 1060 c0 -11 4 -20 9 -20 13 0 32 26 24 33 -13 14 -33 6 -33
-13z"/>
<path d="M854 1049 c-3 -6 -2 -15 4 -21 13 -13 32 -2 32 18 0 16 -26 19 -36 3z"/>
<path d="M1340 1021 c0 -5 6 -14 13 -20 20 -16 39 -88 32 -121 -17 -76 -120
-110 -164 -54 -27 35 -26 49 5 81 20 20 32 24 56 19 26 -5 29 -4 18 9 -19 23
-65 18 -99 -11 -54 -45 -39 -134 29 -169 61 -31 142 -14 178 38 25 37 31 122
11 160 -24 46 -79 93 -79 68z"/>
<path d="M1870 1022 c-8 -4 -16 -16 -17 -27 -1 -15 5 -20 22 -21 25 -2 38 16
29 41 -7 16 -11 17 -34 7z"/>
<path d="M2176 1023 c-13 -14 -5 -33 14 -33 11 0 20 6 20 14 0 15 -24 28 -34
19z"/>
<path d="M866 991 c-3 -5 0 -13 7 -19 15 -13 42 1 33 17 -9 13 -33 15 -40 2z"/>
<path d="M1150 982 c0 -7 -7 -12 -15 -12 -22 0 -19 -37 3 -42 27 -7 43 23 26
47 -8 10 -14 13 -14 7z"/>
<path d="M1756 962 c-3 -6 -9 -30 -12 -54 -7 -48 11 -78 44 -78 30 0 84 39 78
56 -3 9 -6 18 -6 20 0 2 -10 4 -23 4 -26 0 -50 16 -64 44 -6 11 -13 14 -17 8z"/>
<path d="M2146 955 c-3 -9 1 -18 10 -22 19 -7 39 11 30 26 -10 16 -33 13 -40
-4z"/>
<path d="M886 935 c-6 -17 16 -31 33 -21 13 9 2 36 -14 36 -7 0 -16 -7 -19
-15z"/>
<path d="M1523 912 c32 -35 40 -76 23 -117 -22 -52 -20 -74 8 -86 53 -25 90
42 65 119 -14 44 -34 69 -71 88 -37 19 -44 18 -25 -4z"/>
<path d="M1657 914 c-8 -8 1 -24 14 -24 5 0 9 7 9 15 0 15 -12 20 -23 9z"/>
<path d="M2120 896 c0 -8 4 -17 8 -20 13 -8 35 11 28 23 -10 16 -36 14 -36 -3z"/>
<path d="M6280 891 c0 -5 25 -9 55 -10 30 0 55 4 55 9 0 6 -25 10 -55 10 -30
0 -55 -4 -55 -9z"/>
<path d="M910 876 c0 -8 4 -17 8 -20 13 -8 35 11 28 23 -10 16 -36 14 -36 -3z"/>
<path d="M6284 858 c-3 -4 20 -8 50 -8 31 0 56 4 56 8 0 5 -23 8 -51 8 -27 0
-52 -3 -55 -8z"/>
<path d="M2085 850 c-8 -13 3 -30 20 -30 14 0 27 24 18 34 -10 9 -31 7 -38 -4z"/>
<path d="M1650 837 c0 -52 75 -96 107 -64 22 21 8 37 -32 37 -22 0 -41 8 -55
22 -17 19 -20 19 -20 5z"/>
<path d="M6712 835 c0 -11 3 -29 8 -40 11 -25 11 1 0 35 -6 20 -8 21 -8 5z"/>
<path d="M942 823 c2 -10 10 -18 18 -18 8 0 16 8 18 18 2 12 -3 17 -18 17 -15
0 -20 -5 -18 -17z"/>
<path d="M6257 834 c-17 -17 -2 -21 78 -21 59 0 85 3 82 11 -4 12 -149 21
-160 10z"/>
<path d="M6742 811 c1 -16 5 -28 9 -26 6 5 0 55 -7 55 -3 0 -3 -13 -2 -29z"/>
<path d="M6771 818 c-1 -16 4 -28 9 -28 12 0 12 8 0 35 -8 18 -9 17 -9 -7z"/>
<path d="M2050 790 c0 -11 7 -20 15 -20 8 0 15 9 15 20 0 11 -7 20 -15 20 -8
0 -15 -9 -15 -20z"/>
<path d="M6254 791 c-13 -14 3 -20 59 -24 57 -3 56 -3 -20 -5 -63 -2 -83 -5
-83 -16 0 -11 27 -13 130 -13 72 0 130 3 130 8 0 13 -35 28 -56 25 -10 -2 -13
-1 -6 1 6 3 12 10 12 17 0 8 -24 11 -81 11 -44 0 -83 -2 -85 -4z"/>
<path d="M974 779 c-3 -6 -2 -15 4 -21 13 -13 32 -2 32 18 0 16 -26 19 -36 3z"/>
<path d="M4840 765 c-18 -22 -16 -96 3 -110 9 -7 17 -31 20 -61 l3 -49 2 51
c2 51 2 51 40 58 20 3 54 6 75 6 33 0 37 3 37 25 0 14 -7 41 -14 60 l-15 35
-69 0 c-50 0 -73 -4 -82 -15z m148 -27 c3 -15 -4 -18 -47 -18 -27 0 -53 5 -56
10 -12 20 8 31 53 28 35 -2 48 -7 50 -20z"/>
<path d="M1800 756 c0 -9 7 -16 16 -16 9 0 14 5 12 12 -6 18 -28 21 -28 4z"/>
<path d="M2002 743 c2 -10 10 -18 18 -18 8 0 16 8 18 18 2 12 -3 17 -18 17
-15 0 -20 -5 -18 -17z"/>
<path d="M5975 750 c-33 -13 -68 -57 -61 -76 3 -9 12 -14 21 -10 11 4 15 -1
15 -17 l0 -21 15 21 c13 19 20 21 42 12 20 -7 28 -6 35 3 6 10 8 10 8 -1 0
-11 3 -11 15 -1 22 18 15 52 -13 66 -13 6 -29 17 -35 23 -13 13 -15 13 -42 1z"/>
<path d="M6737 752 c-65 -2 -89 -7 -93 -17 -10 -25 17 -85 44 -100 l27 -14
-37 -1 c-20 0 -40 -4 -43 -10 -4 -6 38 -10 119 -10 77 0 126 4 126 10 0 6 -17
10 -38 10 l-39 0 37 40 c20 22 42 40 49 40 8 0 11 11 9 28 -3 30 2 29 -161 24z
m145 -27 c0 -5 -5 -11 -11 -13 -6 -2 -11 4 -11 13 0 9 5 15 11 13 6 -2 11 -8
11 -13z"/>
<path d="M1016 735 c-7 -20 23 -33 34 -14 5 7 6 17 4 21 -9 13 -32 9 -38 -7z"/>
<path d="M1432 729 c2 -6 8 -10 13 -10 5 0 11 4 13 10 2 6 -4 11 -13 11 -9 0
-15 -5 -13 -11z"/>
<path d="M1954 709 c-3 -6 -2 -15 4 -21 13 -13 32 -2 32 18 0 16 -26 19 -36 3z"/>
<path d="M1067 704 c-14 -15 -6 -34 14 -34 14 0 19 5 17 17 -3 18 -20 27 -31
17z"/>
<path d="M6213 696 c4 -11 217 -19 243 -9 38 14 2 20 -116 20 -92 0 -130 -3
-127 -11z"/>
<path d="M4502 683 c2 -10 12 -18 23 -18 11 0 21 8 23 18 3 13 -3 17 -23 17
-20 0 -26 -4 -23 -17z"/>
<path d="M4050 673 c0 -13 -3 -14 -12 -5 -18 18 -81 15 -135 -7 -26 -10 -69
-21 -95 -25 -26 -4 -50 -11 -53 -17 -4 -5 -2 -9 3 -9 6 0 13 -11 16 -25 8 -30
-6 -28 225 -25 159 1 187 4 197 18 7 9 10 20 8 24 -2 4 0 9 6 13 18 11 0 25
-30 25 -21 0 -28 4 -24 14 3 8 -3 19 -15 25 -16 9 -23 7 -35 -11 l-16 -22 0
22 c0 15 -6 22 -20 22 -12 0 -20 -7 -20 -17z m-192 -68 c-9 -9 -68 -12 -74 -4
-3 5 14 9 37 9 23 0 40 -2 37 -5z m79 -1 c-3 -3 -12 -4 -19 -1 -8 3 -5 6 6 6
11 1 17 -2 13 -5z m71 -1 c-10 -2 -28 -2 -40 0 -13 2 -5 4 17 4 22 1 32 -1 23
-4z m49 1 c-3 -3 -12 -4 -19 -1 -8 3 -5 6 6 6 11 1 17 -2 13 -5z"/>
<path d="M1904 669 c-8 -14 11 -33 25 -25 6 4 11 14 11 22 0 16 -26 19 -36 3z"/>
<path d="M1115 660 c-8 -14 3 -30 21 -30 8 0 14 9 14 20 0 21 -24 28 -35 10z"/>
<path d="M6202 664 c7 -7 50 -14 98 -17 28 -2 36 -7 38 -24 2 -15 -2 -23 -12
-23 -8 0 -18 -4 -21 -10 -4 -6 11 -10 37 -10 39 1 41 2 25 15 -36 27 -17 49
53 61 63 11 61 12 -79 13 -79 0 -142 -2 -139 -5z"/>
<path d="M1850 630 c0 -15 5 -20 18 -18 9 2 17 10 17 18 0 8 -8 16 -17 18 -13
2 -18 -3 -18 -18z"/>
<path d="M5310 605 l0 -45 155 0 155 0 0 45 0 45 -155 0 -155 0 0 -45z"/>
<path d="M1165 630 c-8 -14 3 -30 21 -30 8 0 14 9 14 20 0 21 -24 28 -35 10z"/>
<path d="M4424 623 c3 -10 8 -30 12 -45 6 -28 7 -28 89 -28 l83 0 11 31 c14
41 14 42 -3 36 -8 -3 -20 1 -26 9 -15 18 -30 18 -30 1 0 -8 -12 -14 -30 -14
-16 0 -30 4 -30 9 0 13 -28 9 -32 -4 -3 -9 -9 -8 -22 5 -22 22 -29 22 -22 0z"/>
<path d="M5991 624 c0 -11 3 -14 6 -6 3 7 2 16 -1 19 -3 4 -6 -2 -5 -13z"/>
<path d="M5161 621 c-8 -5 -11 -16 -8 -25 5 -13 20 -16 77 -14 65 3 70 4 70
26 0 19 -3 21 -17 14 -10 -6 -29 -6 -47 -1 -39 11 -57 11 -75 0z"/>
<path d="M5630 607 c0 -14 5 -17 20 -12 10 3 36 2 56 -4 25 -7 43 -7 56 0 38
20 13 34 -60 34 -63 0 -72 -2 -72 -18z"/>
<path d="M1790 600 c0 -15 5 -20 18 -18 9 2 17 10 17 18 0 8 -8 16 -17 18 -13
2 -18 -3 -18 -18z"/>
<path d="M6061 604 c0 -11 3 -14 6 -6 3 7 2 16 -1 19 -3 4 -6 -2 -5 -13z"/>
<path d="M1224 599 c-3 -6 -2 -15 4 -21 13 -13 32 -2 32 18 0 16 -26 19 -36 3z"/>
<path d="M1730 585 c-10 -12 -9 -16 5 -21 23 -9 40 10 22 25 -11 9 -17 8 -27
-4z"/>
<path d="M1284 579 c-10 -17 13 -36 27 -22 12 12 4 33 -11 33 -5 0 -12 -5 -16
-11z"/>
<path d="M1665 571 c-8 -15 3 -31 21 -31 9 0 14 7 12 17 -4 20 -24 28 -33 14z"/>
<path d="M1342 553 c2 -10 10 -18 18 -18 8 0 16 8 18 18 2 12 -3 17 -18 17
-15 0 -20 -5 -18 -17z"/>
<path d="M1607 564 c-14 -14 -7 -35 11 -32 9 2 17 10 17 17 0 16 -18 25 -28
15z"/>
<path d="M1404 549 c-3 -6 -1 -16 4 -21 13 -13 45 8 36 23 -7 12 -31 11 -40
-2z"/>
<path d="M1477 554 c-14 -14 -7 -35 11 -32 9 2 17 10 17 17 0 16 -18 25 -28
15z"/>
<path d="M1535 550 c-4 -7 -3 -16 3 -22 14 -14 45 -2 40 15 -6 16 -34 21 -43
7z"/>
</g>
</svg>
